<?xml version="1.0" standalone="no"?>
<!DOCTYPE svg PUBLIC "-//W3C//DTD SVG 20010904//EN"
 "http://www.w3.org/TR/2001/REC-SVG-20010904/DTD/svg10.dtd">
<svg version="1.0" xmlns="http://www.w3.org/2000/svg"
 width="559.000000pt" height="446.000000pt" viewBox="0 0 559.000000 446.000000"
 preserveAspectRatio="xMidYMid meet">

<g transform="translate(0.000000,446.000000) scale(0.100000,-0.100000)"
fill="#000000" stroke="none">
<path d="M2748 3563 c-27 -32 -31 -43 -12 -36 14 5 16 3 11 -11 -13 -32 -19
-66 -13 -66 3 0 11 20 17 45 13 53 27 65 46 40 7 -11 13 -14 13 -8 0 7 -5 15
-11 18 -6 4 -8 13 -5 21 8 20 -28 18 -46 -3z"/>
<path d="M2843 3573 c15 -2 37 -2 50 0 12 2 0 4 -28 4 -27 0 -38 -2 -22 -4z"/>
<path d="M2927 3563 c10 -3 9 -12 -3 -36 l-15 -32 26 30 26 30 110 -114 c60
-63 109 -118 109 -121 0 -10 -94 -50 -118 -50 -10 0 -29 11 -42 25 -13 14 -28
25 -34 25 -5 0 4 -15 22 -33 l32 -33 -42 -60 c-80 -112 -133 -174 -148 -174
-9 0 -36 20 -60 45 -24 25 -48 45 -53 45 -5 0 14 -24 42 -52 59 -62 59 -60 31
-233 -28 -170 -23 -173 13 -8 18 78 37 146 42 151 6 6 42 -1 95 -17 l85 -27 6
-109 c4 -61 7 -227 8 -370 l1 -260 -34 -23 c-18 -12 -44 -34 -57 -49 -14 -15
2 -7 41 21 l65 48 22 -27 c33 -38 29 -58 -28 -122 -90 -101 -201 -213 -210
-213 -6 0 -7 42 -4 98 l5 97 42 37 43 38 -42 -22 c-23 -13 -43 -21 -46 -18 -2
3 -25 66 -52 140 -52 146 -57 200 -35 335 5 33 9 69 9 80 -1 28 -28 -93 -29
-130 0 -16 -4 -36 -9 -44 -12 -19 -15 -14 -156 379 -26 74 -30 142 -10 206 4
13 2 11 -8 -5 -14 -23 -14 -22 -20 24 -10 71 -8 215 2 215 5 0 23 -8 40 -17
35 -20 38 -40 16 -103 -21 -61 -12 -61 13 0 21 50 47 66 58 36 3 -8 18 -23 32
-32 22 -14 20 -10 -10 24 -21 23 -38 46 -38 51 0 5 20 26 44 46 25 20 52 48
61 63 13 19 5 15 -27 -15 -64 -62 -83 -57 -53 14 8 20 14 38 12 40 -2 2 -16
-26 -32 -62 -15 -36 -32 -65 -37 -65 -19 0 -78 42 -78 55 0 7 34 55 75 107 41
51 74 97 75 102 0 5 -15 -10 -32 -34 -18 -24 -49 -62 -68 -84 -80 -91 -74 -30
-66 -681 6 -478 10 -591 22 -636 26 -92 27 -99 13 -99 -25 0 -221 103 -226
119 -27 87 -78 146 -177 201 -44 25 -56 37 -56 56 0 30 2 30 53 0 23 -14 73
-32 110 -42 74 -18 87 -28 144 -111 20 -29 40 -53 45 -53 6 0 0 12 -12 28 -11
15 -37 50 -56 79 l-36 52 12 83 c7 46 12 106 12 134 -1 49 -34 158 -52 169 -9
6 -25 -73 -16 -82 3 -4 6 6 6 20 0 42 16 32 34 -20 24 -70 20 -164 -10 -253
-11 -33 -25 22 -32 128 l-7 107 -5 -80 c-5 -73 -6 -78 -19 -56 -17 30 -57 176
-66 242 l-7 50 37 -7 c34 -6 37 -5 31 13 -4 14 2 25 24 41 16 13 37 33 45 46
14 20 14 26 1 52 -9 15 -30 36 -48 46 -34 18 -113 25 -104 9 3 -5 -9 -11 -27
-13 -17 -3 -40 -9 -51 -13 -14 -6 -18 -5 -14 6 3 8 18 17 34 20 24 6 25 7 6 8
-31 1 -62 -16 -62 -35 0 -8 -7 -17 -15 -20 -35 -14 -4 -68 56 -100 25 -12 28
-18 18 -30 -16 -20 -27 -18 -66 12 -19 14 -37 24 -40 21 -9 -10 25 -98 51
-132 14 -18 49 -47 78 -66 62 -39 64 -42 100 -134 38 -96 36 -105 -14 -61 -15
13 -59 33 -97 45 -68 22 -70 23 -104 84 -19 34 -40 79 -47 100 -8 20 -17 37
-21 37 -8 0 -25 -42 -35 -82 -8 -38 -20 -35 -34 8 -11 32 -9 42 16 97 35 77
43 188 20 257 -9 25 -13 33 -11 18 18 -98 17 -148 -4 -217 -33 -110 -47 -95
-57 58 -9 129 2 251 23 251 8 0 13 6 10 13 -2 6 -14 11 -26 9 -21 -2 -22 1
-16 30 14 65 46 158 54 158 11 0 23 -142 15 -177 -4 -15 -11 -31 -16 -34 -5
-3 -6 -19 -2 -34 7 -29 7 -28 21 16 15 46 11 215 -5 259 -8 22 -10 21 -39 -16
-34 -44 -57 -87 -67 -124 -3 -14 6 0 20 30 32 67 41 52 20 -33 -8 -34 -18 -81
-22 -104 -7 -43 -17 -54 -28 -30 -6 11 -3 -9 11 -74 12 -60 -39 -34 -68 33 -6
15 -15 25 -20 22 -12 -7 -12 -47 0 -60 5 -5 23 -45 40 -90 17 -44 49 -110 71
-147 40 -65 52 -113 28 -105 -25 9 -96 107 -117 162 -11 30 -25 84 -30 118 -7
53 -9 57 -10 23 -3 -104 56 -233 145 -314 51 -47 74 -91 74 -142 0 -33 -8 -36
-36 -14 -42 32 -55 14 -28 -40 8 -16 12 -22 9 -12 -8 29 21 19 48 -17 29 -38
186 -166 259 -212 46 -28 59 -44 38 -44 -22 0 -129 49 -183 83 -48 31 -99 84
-145 153 -7 11 -3 0 9 -24 46 -97 185 -192 336 -229 40 -10 73 -22 73 -26 0
-5 -5 -5 -10 -2 -14 9 -148 -14 -156 -26 -3 -6 5 -7 23 -2 48 14 205 8 233 -8
25 -14 24 -14 -25 -20 -43 -5 -45 -6 -13 -7 41 -2 68 -11 68 -22 0 -13 -179
-33 -253 -27 -51 4 -65 3 -48 -4 36 -14 153 -12 258 4 103 16 176 9 223 -20
16 -10 70 -46 120 -80 50 -35 96 -63 102 -63 6 0 42 33 82 74 39 40 81 79 93
85 31 16 142 14 245 -4 69 -12 101 -13 155 -5 91 15 91 20 -2 13 -77 -6 -241
13 -251 29 -3 4 -1 8 4 8 5 0 12 9 15 19 10 38 154 53 247 25 50 -15 53 -17
35 -30 -17 -13 -16 -14 17 -14 20 0 38 -4 40 -10 4 -11 48 -1 48 11 0 5 -7 9
-15 9 -9 0 -39 12 -68 27 -37 19 -73 27 -125 31 -40 3 -70 8 -65 13 4 4 36 15
71 24 35 9 87 26 115 39 65 29 172 108 188 138 8 14 -10 3 -44 -28 -59 -55
-214 -138 -244 -132 -14 3 -7 11 27 32 80 51 163 119 238 193 40 41 77 71 81
68 8 -4 20 26 21 48 0 5 -15 -1 -34 -12 -42 -26 -46 -26 -46 3 0 48 29 104 82
157 59 59 103 127 113 174 5 24 3 23 -11 -10 -29 -67 -104 -165 -127 -165 -14
0 2 71 20 89 20 20 93 170 93 190 0 9 -14 -15 -30 -54 -47 -110 -85 -133 -56
-34 23 78 84 159 87 117 0 -7 5 -1 11 15 5 15 14 27 19 27 11 0 12 47 1 54 -4
2 -13 -7 -20 -22 -18 -39 -50 -78 -57 -70 -11 10 -9 47 5 108 10 43 10 64 1
99 -16 57 -22 49 -10 -13 9 -50 5 -86 -10 -86 -4 0 -16 39 -26 88 -29 146 -29
142 -1 97 36 -55 32 -31 -4 30 -36 62 -58 90 -65 84 -2 -3 -10 -48 -16 -101
-10 -78 -9 -108 2 -158 l13 -61 12 33 c28 84 47 -6 41 -196 -3 -78 -10 -143
-16 -149 -16 -16 -53 75 -62 153 l-8 65 4 -76 c2 -57 10 -91 30 -133 22 -47
25 -63 18 -93 -10 -45 -28 -53 -37 -16 -10 41 -27 83 -35 83 -4 0 -15 -21 -24
-47 -10 -27 -31 -72 -47 -100 -27 -47 -36 -54 -83 -68 -51 -15 -106 -42 -62
-31 64 16 95 18 95 5 -1 -21 -21 -43 -64 -73 -21 -14 -33 -26 -26 -26 6 0 24
9 40 20 29 21 40 18 40 -11 0 -12 -24 -32 -69 -58 -81 -48 -146 -117 -155
-165 -6 -30 -16 -40 -88 -80 -44 -25 -86 -46 -92 -46 -7 0 -17 -5 -24 -12 -9
-9 -15 -9 -23 -1 -8 8 -6 16 8 30 10 10 34 38 54 63 l37 45 16 205 c22 276 36
596 36 819 l0 184 -47 56 c-95 111 -191 201 -215 200 -13 0 -17 -3 -11 -6z
m246 -279 c5 -5 -7 -40 -88 -259 -15 -38 -30 -74 -34 -78 -13 -13 -165 38
-169 57 -2 8 18 43 45 78 27 35 66 86 88 115 29 37 54 57 90 71 57 24 60 24
68 16z m552 -107 c30 -98 31 -111 9 -103 -10 4 -22 -1 -29 -11 -22 -30 -30 -5
-28 87 1 80 6 110 18 110 3 0 16 -37 30 -83z m-535 -104 c0 -209 -40 -861 -55
-910 -3 -7 -11 -10 -18 -7 -34 13 -38 56 -44 413 -6 386 -6 388 52 536 13 33
28 72 34 88 23 59 31 27 31 -120z m-1330 -153 c0 -33 -4 -60 -10 -60 -6 0 -10
27 -10 60 0 33 4 60 10 60 6 0 10 -27 10 -60z m1912 -8 c1 -23 -2 -45 -5 -49
-4 -3 -7 18 -7 47 0 62 9 63 12 2z m-1487 1 c19 -9 35 -20 35 -25 0 -11 -7
-10 -39 7 -16 8 -31 12 -34 9 -9 -9 -28 6 -22 17 9 13 19 11 60 -8z m-483 -20
c41 -47 85 -180 56 -171 -14 4 -70 115 -82 161 -7 31 4 35 26 10z m348 -28 c0
-13 5 -36 12 -50 16 -35 6 -40 -37 -19 -32 15 -75 60 -64 67 20 13 76 34 82
30 4 -2 7 -15 7 -28z m123 18 c4 -2 7 -8 7 -13 0 -12 -68 -80 -80 -80 -14 0
-40 55 -40 85 0 27 1 27 53 20 28 -4 55 -9 60 -12z m51 -19 c21 -8 20 -26 -4
-57 -20 -26 -71 -44 -90 -32 -6 4 5 24 27 50 40 47 43 48 67 39z m258 -82 c6
-15 42 -117 80 -227 l70 -200 -11 -65 c-11 -67 -7 -98 4 -36 10 53 23 53 45 2
33 -77 69 -206 59 -212 -5 -3 -36 2 -70 10 -33 9 -63 16 -66 16 -5 0 0 53 12
110 2 14 -4 0 -14 -30 -10 -30 -23 -55 -29 -55 -6 0 -31 15 -56 32 l-46 33 0
202 c0 112 -3 261 -7 332 -5 101 -4 128 6 122 7 -5 17 -20 23 -34z m-469 -58
c53 -39 113 -122 98 -137 -18 -18 -113 59 -142 115 -35 68 -25 73 44 22z m83
2 c3 -8 4 -26 2 -41 l-3 -27 -24 32 c-19 26 -21 34 -10 41 20 12 29 11 35 -5z
m-217 -158 l9 -33 1 35 c1 33 4 29 53 -60 67 -125 78 -209 22 -172 -7 4 -24
48 -40 99 -15 51 -30 91 -32 88 -2 -2 5 -36 17 -75 12 -39 19 -75 16 -80 -11
-18 -54 21 -65 59 -15 56 -12 171 6 171 2 0 8 -15 13 -32z m1610 -127 c-29
-94 -47 -120 -71 -105 -18 11 -1 72 49 169 42 84 48 92 51 66 2 -16 -11 -75
-29 -130z m69 48 c-5 -84 -23 -119 -60 -119 -15 0 -18 5 -13 23 4 12 15 51 26
87 10 36 21 78 24 95 12 58 28 -2 23 -86z m-1484 -73 c46 -14 156 -90 156
-107 0 -14 -33 -11 -103 11 -48 15 -73 30 -96 55 -50 57 -41 66 43 41z m-98
-98 c174 -102 206 -127 229 -178 32 -71 16 -67 -140 36 -81 54 -245 198 -245
215 0 17 18 9 156 -73z m1573 26 c-93 -97 -309 -254 -348 -254 -40 0 32 106
101 148 164 101 279 164 286 157 3 -3 -14 -26 -39 -51z m-1033 -240 c19 -15
34 -32 34 -40 0 -21 -42 -86 -50 -77 -12 12 -40 100 -40 123 0 27 15 25 56 -6z
m163 -68 c29 -8 55 -17 58 -20 7 -7 4 -177 -4 -189 -3 -5 -14 4 -25 20 -16 23
-18 24 -13 6 4 -14 2 -23 -5 -23 -12 0 -161 107 -171 123 -10 14 34 87 52 87
9 0 33 -32 58 -75 24 -42 48 -78 53 -81 9 -6 -10 31 -64 121 -30 51 -26 53 61
31z"/>
<path d="M2842 3473 l23 -42 -38 -38 c-48 -50 -48 -62 1 -18 20 19 41 35 47
35 5 0 29 -19 54 -42 l45 -43 -44 54 c-41 49 -43 55 -32 83 11 30 11 30 -9 12
-20 -18 -21 -17 -45 11 l-25 30 23 -42z"/>
<path d="M2716 3425 c-9 -26 -7 -32 5 -12 6 10 9 21 6 23 -2 3 -7 -2 -11 -11z"/>
<path d="M1812 3095 c0 -16 2 -22 5 -12 2 9 2 23 0 30 -3 6 -5 -1 -5 -18z"/>
<path d="M3665 2950 c-4 -17 -5 -34 -2 -36 2 -3 7 10 11 27 8 42 0 50 -9 9z"/>
<path d="M3308 2919 c-64 -32 -58 -113 11 -144 17 -8 20 -16 16 -34 -6 -23 -4
-23 30 -18 l37 6 -7 -52 c-4 -29 -14 -76 -21 -106 -8 -30 -12 -56 -9 -59 3 -3
5 1 5 9 0 8 33 37 72 64 66 46 118 102 118 128 0 5 -13 -9 -28 -32 -28 -41
-104 -101 -129 -101 -17 0 -1 41 33 86 23 29 105 94 120 94 2 0 4 -8 5 -17 0
-10 5 -5 10 11 4 17 7 31 5 33 -1 1 -18 -8 -36 -22 -39 -29 -53 -31 -70 -10
-10 12 -6 17 23 29 39 16 73 59 63 78 -20 40 -36 62 -48 69 -18 12 -61 11 -53
-1 4 -6 -5 -10 -20 -10 -15 0 -24 4 -20 10 11 17 -67 9 -107 -11z m79 -5 c2
-6 -11 -14 -29 -17 -18 -3 -41 -8 -50 -12 -32 -13 -19 11 15 28 35 18 58 18
64 1z m118 5 c12 -19 -5 -23 -22 -6 -16 16 -16 17 -1 17 9 0 20 -5 23 -11z
m-55 -44 c0 -29 -26 -85 -39 -85 -5 0 -21 10 -37 22 -26 20 -27 20 -11 2 28
-33 22 -47 -15 -40 -37 7 -81 50 -76 75 4 22 46 27 54 7 3 -9 10 -16 15 -16 6
0 5 9 -1 20 -12 22 -8 25 40 33 62 10 70 8 70 -18z m64 10 c20 -8 36 -22 36
-29 0 -28 -91 -88 -107 -72 -4 3 -1 17 5 31 7 14 12 36 12 49 0 19 7 36 15 36
2 0 19 -7 39 -15z m-65 -154 c11 -7 9 -15 -10 -42 l-24 -34 -3 28 c-6 50 7 67
37 48z"/>
<path d="M3883 2890 c0 -25 2 -35 4 -22 2 12 2 32 0 45 -2 12 -4 2 -4 -23z"/>
<path d="M3276 2664 c-4 -9 -4 -19 -1 -22 2 -3 7 3 11 12 4 9 4 19 1 22 -2 3
-7 -3 -11 -12z"/>
<path d="M2781 2654 c0 -11 3 -14 6 -6 3 7 2 16 -1 19 -3 4 -6 -2 -5 -13z"/>
<path d="M3301 2495 c-5 -133 -9 -155 -30 -155 -9 0 -29 93 -35 160 -2 25 -2
9 0 -35 2 -44 6 -102 10 -130 5 -43 2 -55 -21 -89 -14 -21 -24 -41 -21 -43 3
-3 15 11 27 31 17 29 32 39 82 56 52 17 39 20 -15 4 -31 -9 -20 19 19 53 30
25 33 31 15 26 l-22 -5 25 53 c14 30 25 61 24 69 0 10 -3 8 -9 -5 -36 -87 -34
-87 -40 10 l-6 90 -3 -90z"/>
<path d="M3703 2329 c-12 -21 -17 -37 -12 -33 11 6 42 64 37 69 -2 2 -13 -14
-25 -36z"/>
<path d="M2100 2005 c-14 -8 -33 -14 -42 -15 -10 0 -18 -4 -18 -8 0 -9 62 -34
69 -27 2 3 -1 5 -7 5 -7 0 -12 5 -12 10 0 6 14 10 31 10 25 0 29 3 20 13 -6 8
-8 17 -4 20 11 12 -11 7 -37 -8z"/>
<path d="M2183 1993 c9 -2 23 -2 30 0 6 3 -1 5 -18 5 -16 0 -22 -2 -12 -5z"/>
<path d="M3213 1993 c9 -2 25 -2 35 0 9 3 1 5 -18 5 -19 0 -27 -2 -17 -5z"/>
<path d="M3393 1993 c9 -2 25 -2 35 0 9 3 1 5 -18 5 -19 0 -27 -2 -17 -5z"/>
<path d="M525 1506 c-13 -30 -32 -77 -41 -105 -9 -28 -21 -51 -27 -51 -16 0
-2 -10 21 -15 19 -3 21 0 16 24 -5 22 -1 32 16 44 14 9 17 16 9 19 -9 3 -8 16
6 51 10 26 22 47 27 47 11 0 29 -47 31 -80 1 -14 8 -30 15 -36 8 -5 15 -22 15
-37 2 -23 6 -27 32 -27 17 0 25 4 19 8 -6 4 -28 53 -49 110 -24 63 -43 102
-52 102 -8 0 -25 -24 -38 -54z"/>
<path d="M853 1553 c23 -6 23 -7 9 -140 l-8 -73 25 0 c17 0 22 3 13 8 -9 6
-11 27 -6 80 4 40 10 72 15 72 4 0 19 -36 34 -80 32 -95 54 -107 74 -37 16 57
42 117 51 117 10 0 23 -137 15 -150 -4 -6 5 -10 20 -10 17 0 24 4 19 11 -3 6
-8 34 -10 63 -2 28 -6 68 -9 88 -4 28 -1 39 12 47 15 9 13 10 -14 11 -38 0
-40 -3 -74 -99 -14 -41 -30 -76 -36 -78 -6 -2 -23 36 -39 84 l-29 88 -40 2
c-22 1 -32 -1 -22 -4z"/>
<path d="M1313 1549 c14 -8 17 -25 17 -99 0 -74 -3 -91 -17 -99 -14 -8 -10
-10 22 -11 22 0 35 4 28 8 -11 7 -10 73 2 91 2 4 0 24 -5 45 -5 21 -6 45 -3
52 6 16 93 20 93 4 0 -5 5 -10 10 -10 6 0 10 7 10 15 0 12 -16 15 -87 15 -65
-1 -83 -3 -70 -11z"/>
<path d="M1620 1538 c1 -21 2 -21 11 -5 6 10 22 17 40 17 l30 0 -3 -105 c-3
-99 -2 -105 17 -105 19 0 20 7 20 102 l0 103 33 3 c24 3 32 -1 32 -13 0 -9 4
-14 10 -10 5 3 7 12 3 20 -4 12 -26 15 -99 15 -91 0 -94 -1 -94 -22z"/>
<path d="M1983 1549 c14 -8 17 -25 17 -104 0 -83 -2 -95 -17 -96 -10 -1 0 -5
22 -8 43 -7 57 -4 37 8 -11 6 -15 45 -11 96 1 11 -1 37 -6 57 -6 34 -5 39 16
47 20 8 16 10 -26 10 -39 0 -46 -2 -32 -10z"/>
<path d="M2132 1550 c13 -8 16 -27 16 -103 0 -58 -4 -95 -12 -99 -6 -5 -2 -8
11 -8 12 0 30 -3 40 -7 16 -6 17 -5 3 11 -22 27 -25 180 -4 200 14 15 11 16
-28 16 -33 -1 -39 -3 -26 -10z"/>
<path d="M2362 1549 c10 -5 34 -39 54 -75 27 -49 35 -73 32 -99 -3 -30 -1 -35
17 -35 18 0 20 5 17 34 -5 41 58 163 92 176 17 7 12 9 -23 9 -35 1 -41 -2 -33
-12 9 -10 6 -23 -9 -53 -12 -21 -25 -43 -29 -48 -12 -12 -63 73 -57 95 4 16
-1 19 -36 19 -33 -1 -38 -3 -25 -11z"/>
<path d="M2755 1537 c-38 -32 -23 -63 46 -96 44 -21 55 -31 57 -54 3 -21 -2
-29 -20 -36 l-23 -10 22 0 c28 -1 56 39 46 65 -10 26 -43 51 -76 58 -16 3 -32
16 -39 32 -11 23 -10 28 7 40 25 18 60 18 79 -1 10 -11 17 -12 22 -4 21 34
-83 40 -121 6z"/>
<path d="M3034 1549 c-3 -6 -1 -16 5 -22 8 -8 11 -6 11 7 0 14 7 17 33 14 l32
-3 3 -94 c2 -69 -1 -97 -10 -103 -8 -5 -2 -8 17 -8 l30 0 -3 105 -3 105 30 0
c18 0 34 -7 40 -17 9 -16 10 -16 11 5 0 21 -3 22 -94 22 -58 0 -97 -4 -102
-11z"/>
<path d="M3386 1550 c16 -6 30 -33 54 -105 44 -133 68 -137 105 -20 9 30 21
55 26 55 4 0 13 -19 20 -42 17 -68 38 -110 52 -105 6 2 27 48 44 102 18 54 38
104 44 111 9 11 4 14 -27 14 -34 0 -36 -1 -20 -13 17 -12 17 -17 3 -58 -8 -24
-18 -59 -22 -76 -6 -31 -35 -48 -35 -20 0 26 -53 157 -64 157 -6 0 -17 -24
-24 -52 -22 -95 -33 -128 -42 -128 -5 0 -16 26 -25 58 -8 31 -20 68 -26 81 -7
16 -6 27 2 37 9 12 3 14 -37 13 -38 0 -44 -2 -28 -9z"/>
<path d="M3943 1548 c-26 -13 -53 -65 -53 -105 0 -39 34 -91 65 -99 14 -3 29
-4 32 0 4 3 -1 6 -10 6 -28 0 -47 41 -47 100 0 46 4 61 23 78 30 29 62 28 92
-3 20 -19 25 -34 25 -74 0 -65 -7 -81 -44 -97 -26 -11 -27 -13 -9 -14 54 -1
83 40 83 115 0 38 -5 52 -29 76 -32 31 -84 38 -128 17z"/>
<path d="M4273 1553 c15 -4 17 -18 17 -103 0 -69 -4 -100 -12 -103 -7 -3 1 -6
17 -6 l30 -1 -3 102 c-1 73 1 104 10 110 8 4 -6 7 -32 7 -25 -1 -37 -3 -27 -6z"/>
<path d="M4368 1553 c29 -6 53 -42 45 -71 -3 -12 -17 -29 -32 -37 -14 -8 -20
-14 -13 -15 6 0 12 -10 12 -23 0 -35 28 -67 58 -67 26 0 26 0 6 15 -12 8 -27
29 -35 46 -12 30 -11 33 9 47 50 33 15 114 -48 111 -24 -2 -24 -2 -2 -6z"/>
<path d="M4623 1549 c14 -8 17 -25 17 -104 0 -81 -2 -94 -17 -98 -10 -3 -1 -5
20 -6 28 -1 36 2 31 11 -6 10 -9 120 -4 190 0 3 8 9 18 11 9 3 -5 5 -33 6 -38
0 -46 -2 -32 -10z"/>
<path d="M4953 1549 c14 -8 17 -25 17 -97 0 -55 -4 -92 -12 -100 -9 -9 -5 -12
18 -12 l29 0 -3 105 -3 105 38 0 c56 0 81 -22 89 -76 9 -62 -12 -107 -58 -121
l-33 -11 32 -1 c45 -1 83 34 90 84 7 53 -17 112 -52 125 -36 14 -176 13 -152
-1z"/>
<path d="M1400 1450 c-15 -5 -18 -8 -8 -9 9 -1 23 -4 32 -7 11 -4 16 -1 16 10
0 17 -3 18 -40 6z"/>
<path d="M2736 1381 c-11 -17 12 -41 38 -40 15 1 16 3 5 6 -9 2 -21 14 -26 25
-7 16 -12 18 -17 9z"/>
<path d="M1460 1366 c0 -8 -6 -17 -12 -19 -7 -3 -3 -6 10 -6 16 -1 22 5 22 19
0 11 -4 20 -10 20 -5 0 -10 -6 -10 -14z"/>
<path d="M4770 1361 c0 -5 -8 -12 -17 -14 -14 -4 -13 -5 3 -6 12 0 24 6 28 14
3 8 1 15 -4 15 -6 0 -10 -4 -10 -9z"/>
</g>
</svg>
